<?xml version="1.0" standalone="no"?><!DOCTYPE svg PUBLIC "-//W3C//DTD SVG 1.1//EN" "http://www.w3.org/Graphics/SVG/1.1/DTD/svg11.dtd"><svg t="1742827351237" class="icon" viewBox="0 0 1228 1024" version="1.1" xmlns="http://www.w3.org/2000/svg" p-id="4505" xmlns:xlink="http://www.w3.org/1999/xlink" width="239.84375" height="200"><path d="M482.986667 823.7056c21.162667 0 41.642667-2.594133 61.2352-7.7824 10.786133-2.730667 24.576-7.7824 41.3696-15.018667l-89.429334-85.1968 95.4368-99.601066 89.429334 85.1968a417.792 417.792 0 0 0 29.354666-75.5712c8.874667-32.426667 13.243733-70.178133 13.243734-113.390934 0-99.191467-20.343467-175.9232-60.893867-230.058666-40.618667-54.272-99.9424-81.373867-177.902933-81.373867-73.250133 0-131.618133 26.0096-175.240534 78.0288-43.6224 52.0192-65.399467 129.774933-65.399466 233.403733 0 121.173333 31.197867 208.008533 93.5936 260.369067 40.413867 33.9968 88.814933 50.9952 145.2032 50.9952z m425.437866-324.539733c0 78.779733-9.6256 144.725333-28.808533 197.973333-15.633067 50.7904-38.638933 92.9792-69.0176 126.5664l101.9904 95.4368-96.597333 100.7616-106.769067-100.7616c-32.426667 19.592533-60.416 33.450667-83.968 41.3696-39.594667 13.243733-87.04 19.797333-142.267733 19.797333-115.165867 0-210.397867-34.4064-285.559467-103.150933C106.222933 794.350933 60.6208 672.768 60.6208 512.341333c0-161.5872 46.762667-283.784533 140.356267-366.592C277.435733 78.165333 372.394667 44.305067 486.058667 44.305067c114.414933 0 210.397867 35.84 288.017066 107.451733 89.565867 82.807467 134.417067 198.587733 134.417067 347.409067z m302.967467-275.456h-173.397333V65.9456h173.397333v157.764267z m-173.397333 78.0288h173.397333V955.733333h-173.397333V301.738667z" fill="#198BFF" p-id="4506"></path></svg>