<?xml version="1.0" standalone="no"?><!DOCTYPE svg PUBLIC "-//W3C//DTD SVG 1.1//EN" "http://www.w3.org/Graphics/SVG/1.1/DTD/svg11.dtd"><svg t="1743656243533" class="icon" viewBox="0 0 1024 1024" version="1.1" xmlns="http://www.w3.org/2000/svg" p-id="9828" xmlns:xlink="http://www.w3.org/1999/xlink" width="200" height="200"><path d="M512 0c282.760533 0 512 229.239467 512 512 0 282.760533-229.239467 512-512 512-282.760533 0-512-229.239467-512-512C0 229.239467 229.239467 0 512 0zM281.258667 375.1936c-41.301333 0-73.557333 13.141333-96.8704 40.174933-22.528 25.531733-33.416533 58.5728-33.416534 99.498667 0 40.5504 10.922667 73.591467 33.450667 99.1232 23.278933 26.282667 55.569067 39.799467 96.8704 39.799467 40.925867 0 73.216-13.141333 96.8704-39.424 22.528-25.156267 33.792-58.197333 33.792-99.498667s-11.264-74.717867-33.792-99.874133c-23.688533-26.658133-55.978667-39.799467-96.8704-39.799467z m580.5056 5.256533h-43.963734v179.848534c0 19.1488-3.3792 33.041067-10.103466 41.6768-6.7584 8.635733-17.681067 13.141333-32.324267 13.141333-26.624 0-39.799467-15.394133-39.799467-46.1824v-8.260267h-43.9296v8.635734c0 26.282667 7.168 46.933333 21.4016 61.952 13.892267 15.018667 34.542933 22.528 61.610667 22.528 31.163733 0 53.6576-7.8848 67.925333-23.6544 12.8-15.018667 19.182933-37.546667 19.182934-68.334934v-181.3504z m-285.764267 0h-122.7776V648.533333h123.1872c28.501333 0 51.029333-5.256533 66.798933-15.7696 18.432-12.765867 27.784533-32.6656 27.784534-59.6992 0-18.0224-4.5056-32.6656-13.141334-43.178666-9.0112-10.888533-22.1184-18.0224-39.765333-21.4016 13.482667-5.256533 23.620267-12.3904 30.754133-22.152534 7.168-10.513067 10.922667-23.278933 10.922667-38.2976 0-20.2752-7.168-36.420267-21.060267-48.4352-15.018667-12.765867-36.010667-19.1488-62.702933-19.1488z m-294.7072 33.416534c27.784533 0 49.152 8.635733 64.170667 26.658133 14.677333 18.0224 22.186667 42.8032 22.186666 74.3424 0 31.5392-7.509333 55.944533-22.186666 73.591467-15.018667 17.646933-36.386133 26.658133-64.170667 26.658133-27.784533 0-49.5616-9.386667-64.6144-27.784533-14.609067-18.0224-21.777067-42.052267-21.777067-72.465067 0-30.788267 7.168-54.818133 21.777067-72.840533 15.428267-18.773333 36.829867-28.16 64.6144-28.16z m289.860267 115.268266c19.524267 0 33.792 3.3792 42.769066 10.1376 8.635733 6.7584 13.175467 17.646933 13.175467 33.041067 0 15.018667-6.0416 25.531733-18.056533 32.290133-9.352533 5.256533-22.528 7.8848-39.0144 7.8848h-72.840534v-83.3536h73.966934z m-6.0416-112.64c18.0224 0 30.788267 3.003733 39.082666 9.0112 7.509333 5.632 11.605333 15.018667 11.605334 27.784534 0 13.892267-4.096 24.029867-11.605334 30.4128-7.918933 6.007467-21.060267 9.386667-39.799466 9.386666h-67.242667v-76.5952h67.9936z" fill="#74EBEE" p-id="9829"></path></svg>